HIERARCHY
ROOT Hips
{
	OFFSET 0.000000 0.000000 0.000000
	CHANNELS 6 Xposition Yposition Zposition Zrotation Yrotation Xrotation 
	JOINT LHipJoint
	{
		OFFSET 0.000000 0.000000 0.000000
		CHANNELS 3 Zrotation Yrotation Xrotation
		JOINT LeftUpLeg
		{
			OFFSET 1.363060 -1.794630 0.839290
			CHANNELS 3 Zrotation Yrotation Xrotation
			JOINT LeftLeg
			{
				OFFSET 2.448110 -6.726130 0.000000
				CHANNELS 3 Zrotation Yrotation Xrotation
				JOINT LeftFoot
				{
					OFFSET 2.562200 -7.039590 0.000000
					CHANNELS 3 Zrotation Yrotation Xrotation
					JOINT LeftToeBase
					{
						OFFSET 0.157640 -0.433110 2.322550
						CHANNELS 3 Zrotation Yrotation Xrotation
						End Site
						{
							OFFSET 0.000000 0.000000 0.000000
						}
					}
				}
			}
		}
	}
	JOINT RHipJoint
	{
		OFFSET 0.000000 0.000000 0.000000
		CHANNELS 3 Zrotation Yrotation Xrotation
		JOINT RightUpLeg
		{
			OFFSET -1.305520 -1.794630 0.839290
			CHANNELS 3 Zrotation Yrotation Xrotation
			JOINT RightLeg
			{
				OFFSET -2.542530 -6.985550 0.000000
				CHANNELS 3 Zrotation Yrotation Xrotation
				JOINT RightFoot
				{
					OFFSET -2.568260 -7.056230 0.000000
					CHANNELS 3 Zrotation Yrotation Xrotation
					JOINT RightToeBase
					{
						OFFSET -0.164730 -0.452590 2.363150
						CHANNELS 3 Zrotation Yrotation Xrotation
						End Site
						{
							OFFSET 0.000000 0.000000 0.000000
						}
					}
				}
			}
		}
	}
	JOINT LowerBack
	{
		OFFSET 0.000000 0.000000 0.000000
		CHANNELS 3 Zrotation Yrotation Xrotation
		JOINT Spine
		{
			OFFSET 0.028270 2.035590 -0.193380
			CHANNELS 3 Zrotation Yrotation Xrotation
			JOINT Spine1
			{
				OFFSET 0.056720 2.048850 -0.042750
				CHANNELS 3 Zrotation Yrotation Xrotation
				JOINT Neck
				{
					OFFSET 0.000000 0.000000 0.000000
					CHANNELS 3 Zrotation Yrotation Xrotation
					JOINT Neck1
					{
						OFFSET -0.054170 1.746240 0.172020
						CHANNELS 3 Zrotation Yrotation Xrotation
						JOINT Head
						{
							OFFSET 0.104070 1.761360 -0.123970
							CHANNELS 3 Zrotation Yrotation Xrotation
							End Site
							{
								OFFSET 0.000000 0.000000 0.000000
							}
						}
					}
				}
				JOINT LeftShoulder
				{
					OFFSET 0.000000 0.000000 0.000000
					CHANNELS 3 Zrotation Yrotation Xrotation
					JOINT LeftArm
					{
						OFFSET 3.362410 1.200890 -0.311210
						CHANNELS 3 Zrotation Yrotation Xrotation
						JOINT LeftForeArm
						{
							OFFSET 4.983000 -0.000000 -0.000000
							CHANNELS 3 Zrotation Yrotation Xrotation
							JOINT LeftHand
							{
								OFFSET 3.483560 -0.000000 -0.000000
								CHANNELS 3 Zrotation Yrotation Xrotation
								JOINT LeftFingerBase
								{
									OFFSET 0.000000 0.000000 0.000000
									CHANNELS 3 Zrotation Yrotation Xrotation
									JOINT LeftHandIndex1
									{
										OFFSET 0.715260 -0.000000 -0.000000
										CHANNELS 3 Zrotation Yrotation Xrotation
										End Site
										{
											OFFSET 0.000000 0.000000 0.000000
										}
									}
								}
								JOINT LThumb
								{
									OFFSET 0.000000 0.000000 0.000000
									CHANNELS 3 Zrotation Yrotation Xrotation
									End Site
									{
										OFFSET 0.000000 0.000000 0.000000
									}
								}
							}
						}
					}
				}
				JOINT RightShoulder
				{
					OFFSET 0.000000 0.000000 0.000000
					CHANNELS 3 Zrotation Yrotation Xrotation
					JOINT RightArm
					{
						OFFSET -3.136600 1.374050 -0.404650
						CHANNELS 3 Zrotation Yrotation Xrotation
						JOINT RightForeArm
						{
							OFFSET -5.241900 -0.000000 -0.000000
							CHANNELS 3 Zrotation Yrotation Xrotation
							JOINT RightHand
							{
								OFFSET -3.444170 -0.000000 -0.000000
								CHANNELS 3 Zrotation Yrotation Xrotation
								JOINT RightFingerBase
								{
									OFFSET 0.000000 0.000000 0.000000
									CHANNELS 3 Zrotation Yrotation Xrotation
									JOINT RightHandIndex1
									{
										OFFSET -0.622530 -0.000000 -0.000000
										CHANNELS 3 Zrotation Yrotation Xrotation
										End Site
										{
											OFFSET 0.000000 0.000000 0.000000
										}
									}
								}
								JOINT RThumb
								{
									OFFSET 0.000000 0.000000 0.000000
									CHANNELS 3 Zrotation Yrotation Xrotation
									End Site
									{
										OFFSET 0.000000 0.000000 0.000000
									}
								}
							}
						}
					}
				}
			}
		}
	}
}
MOTION
Frames: 10
Frame Time: 0.008333
11.663306 17.353778 -5.602595 -12.637315 84.453168 -11.280451 3.512594 2.246984 0.117843 -21.096717 -21.348611 1.581102 -1.418537 8.948945 24.891928 -1.687522 14.984828 -20.007039 0.935600 -6.161100 -17.252600 -9.682501 -2.356393 -2.741340 31.450962 13.735280 16.023060 3.800303 -0.198264 5.600891 3.398833 -26.662739 -17.649715 -0.150700 2.501700 -6.894500 0.306575 0.032976 1.369786 1.561188 0.193111 -4.014863 0.513505 -0.221341 -0.628671 -3.154074 -2.449410 -15.902395 7.347836 -2.905153 8.156363 1.304900 -1.028400 9.124500 2.489616 -1.179588 -0.625513 -90.690190 1.376421 27.688063 13.499481 -20.500932 -3.615605 -0.329032 -2.404583 -25.918887 32.565308 52.703857 28.507500 -7.125000 0.000000 0.000000 -78.350600 84.835300 -73.226600 -3.063489 1.279498 -0.680128 86.749381 -3.346664 12.867299 -7.154410 14.675908 -1.022369 0.591339 -0.550016 9.954839 -17.881052 17.756698 -5.969400 7.125000 0.000000 0.000000 6.221300 -10.994700 4.950600 
11.644674 17.373406 -5.600901 -13.931019 84.364525 -12.559273 3.547022 2.272168 0.106167 -20.913051 -21.208549 1.717279 -1.499935 8.767972 24.394337 -1.760440 15.116721 -19.624715 0.988200 -6.327300 -17.737000 -9.629106 -2.301477 -2.704464 31.747233 14.213362 14.830775 3.633238 -1.162969 7.860565 3.329348 -26.512222 -18.504629 -0.141700 2.426000 -6.684500 0.378811 -0.001840 1.471969 1.564053 0.143099 -3.997442 0.518696 -0.240164 -0.752609 -3.374085 -2.738227 -15.371049 7.320840 -3.278534 7.631176 1.275100 -1.253300 8.714200 2.508574 -1.204919 -0.591554 -90.740378 1.373635 28.118095 13.762716 -20.844643 -3.704906 -0.322183 -2.391718 -26.124326 32.373521 52.435348 28.248900 -7.125000 0.000000 0.000000 -75.016500 84.781100 -69.896300 -3.071448 1.264804 -0.663214 86.725573 -3.213210 14.897147 -7.520104 15.274781 -1.119842 0.598498 -0.523054 8.556903 -17.831881 17.464654 -5.854900 7.125000 0.000000 0.000000 6.243900 -11.313900 4.927700 
11.627537 17.393830 -5.597813 -14.469985 84.255620 -13.059097 3.558156 2.286551 0.098761 -20.778732 -21.093232 1.858214 -1.585061 8.585143 23.890234 -1.826915 15.272877 -19.351660 0.984700 -6.316300 -17.705000 -9.609611 -2.262868 -2.677166 31.937597 14.628841 13.969921 3.495423 -1.831523 9.426440 3.274522 -26.368902 -18.940251 -0.140700 2.417300 -6.660300 0.416126 0.011703 1.532475 1.550089 0.163714 -3.986234 0.493603 -0.230583 -0.809796 -3.581245 -2.930881 -15.191194 7.400724 -3.497590 7.364098 1.335300 -1.376700 8.536800 2.512253 -1.218099 -0.575147 -90.765234 1.321755 28.635477 14.038576 -21.199696 -3.805234 -0.317728 -2.386626 -26.318076 32.497553 52.296145 28.317200 -7.125000 0.000000 0.000000 -73.668500 84.841300 -68.637100 -3.097684 1.272243 -0.656384 86.764112 -3.100754 16.494051 -7.907326 15.905323 -1.225275 0.606753 -0.513522 7.413285 -17.972602 17.601468 -5.945900 7.125000 0.000000 0.000000 6.159300 -11.153200 4.880600 
11.610898 17.415750 -5.593827 -15.329769 84.148522 -13.874108 3.576020 2.312888 0.100478 -20.622080 -21.043014 2.098047 -1.696970 8.340782 23.222957 -1.914168 15.501780 -19.041027 0.957000 -6.229500 -17.451600 -9.590537 -2.221240 -2.651274 32.136123 15.021454 13.153108 3.355796 -2.449358 10.872902 3.230916 -26.263636 -19.273141 -0.146000 2.462300 -6.785100 0.465073 0.034670 1.580101 1.550132 0.194623 -3.984607 0.493630 -0.218725 -0.809004 -3.627961 -3.026775 -15.389578 7.342597 -3.604491 7.424326 1.305000 -1.431300 8.630500 2.523452 -1.233663 -0.578133 -90.796224 1.236549 29.196903 14.309421 -21.550804 -3.912376 -0.308581 -2.390434 -26.638426 32.900710 52.326781 28.692000 -7.125000 0.000000 0.000000 -74.699000 85.011400 -69.815200 -3.113461 1.288533 -0.671076 86.772434 -2.989492 17.942481 -8.350911 16.605171 -1.350341 0.612969 -0.505285 6.332542 -18.102076 17.740707 -6.034600 7.125000 0.000000 0.000000 6.083400 -10.990000 4.840200 
11.594559 17.428304 -5.590340 -16.246123 84.035156 -14.787402 3.599511 2.344688 0.106843 -20.491630 -21.037641 2.365448 -1.795300 8.119516 22.626914 -2.003483 15.759532 -18.757130 0.937000 -6.165600 -17.265800 -9.590720 -2.184892 -2.642427 32.511508 15.263526 12.668145 3.246546 -2.902746 11.943154 3.187380 -26.151968 -19.429037 -0.149800 2.494400 -6.874100 0.528558 0.091985 1.656414 1.546134 0.271779 -3.975367 0.448790 -0.185013 -0.767861 -3.454443 -2.971509 -15.724678 7.220660 -3.559283 7.611997 1.210800 -1.398700 8.817300 2.541818 -1.253357 -0.587567 -90.783451 1.095669 29.766429 14.560080 -21.874241 -4.011212 -0.301364 -2.386512 -26.917176 33.009448 52.239185 28.762300 -7.125000 0.000000 0.000000 -73.838600 85.063300 -69.024100 -3.123425 1.303443 -0.695275 86.819161 -2.878288 19.167238 -8.877474 17.420735 -1.507064 0.615598 -0.491643 5.342457 -18.156625 17.700268 -6.037600 7.125000 0.000000 0.000000 6.049600 -11.027900 4.808200 
11.584496 17.468157 -5.587750 -16.523427 83.922458 -15.064216 3.610870 2.367139 0.111029 -20.411935 -20.901794 2.563331 -1.874107 7.935069 22.132540 -2.092253 16.020700 -18.446339 0.984900 -6.316800 -17.706400 -9.622348 -2.161569 -2.646192 32.536598 15.585710 12.113027 3.144059 -3.263440 12.772243 3.314940 -26.465276 -18.441670 -0.280900 3.408800 -9.419000 0.594839 0.202235 1.735609 1.512958 0.425144 -3.959690 0.270896 -0.114252 -0.704050 -3.046318 -2.748179 -16.094309 7.092089 -3.354215 7.793795 1.082100 -1.275800 8.997900 2.562297 -1.279581 -0.597308 -90.689752 0.888865 30.293899 14.801039 -22.182368 -4.106982 -0.294529 -2.376519 -27.004776 32.693876 52.174976 28.451600 -7.125000 0.000000 0.000000 -72.522800 84.928700 -67.604300 -3.137214 1.311885 -0.721877 86.988795 -2.791799 20.005205 -9.459287 18.317210 -1.690353 0.614333 -0.481697 4.624400 -18.182244 17.697456 -6.042600 7.125000 0.000000 0.000000 6.037500 -11.029600 4.798300 
11.568156 17.470249 -5.586455 -16.606630 83.815137 -15.112141 3.615700 2.371736 0.102763 -20.306819 -20.672557 2.560114 -1.924737 7.813830 21.795185 -2.160074 16.194852 -18.131453 1.072200 -6.582200 -18.483400 -9.608864 -2.148864 -2.634607 32.539279 15.646725 11.660676 3.076253 -3.510641 13.343417 3.232153 -26.201092 -18.780938 -0.248800 3.209700 -8.863200 0.636724 0.273408 1.778160 1.486407 0.524668 -3.942559 0.148837 -0.067829 -0.658453 -2.867958 -2.659348 -16.267431 7.037403 -3.280463 7.797353 1.024200 -1.233700 9.037300 2.576975 -1.299801 -0.595286 -90.631552 0.738067 30.730817 15.043598 -22.492135 -4.205108 -0.284793 -2.370958 -27.135936 32.531420 52.180658 28.301900 -7.125000 0.000000 0.000000 -72.317400 84.856400 -67.332400 -3.157043 1.317018 -0.735988 87.084005 -2.693592 20.932461 -10.021924 19.179796 -1.875753 0.612828 -0.475751 3.940022 -18.201534 17.796312 -6.079300 7.125000 0.000000 0.000000 6.034800 -10.923100 4.809300 
11.549723 17.467161 -5.585060 -16.768464 83.752543 -15.218760 3.614612 2.351589 0.067809 -20.192580 -20.490447 2.536731 -1.963714 7.712633 21.514188 -2.195856 16.245367 -17.858138 1.113300 -6.703300 -18.839200 -9.690092 -2.048567 -2.571153 33.307400 17.704107 12.306061 3.145185 -3.594131 13.543787 3.659808 -28.052198 -19.941200 -0.179300 2.727300 -7.520300 0.661236 0.288929 1.807094 1.473559 0.550936 -3.924558 0.100640 -0.059989 -0.636594 -2.916719 -2.713933 -16.313120 7.040040 -3.342244 7.698560 1.028900 -1.271000 8.996100 2.585607 -1.316440 -0.585541 -90.615715 0.667919 31.161069 15.283562 -22.797024 -4.301526 -0.278367 -2.368365 -27.385575 32.729479 52.099116 28.454800 -7.125000 0.000000 0.000000 -71.681600 84.943400 -66.798100 -3.180144 1.320805 -0.741929 87.069166 -2.551673 22.058583 -10.562791 19.995952 -2.060573 0.614846 -0.465667 3.096330 -18.287492 17.802498 -6.109100 7.125000 0.000000 0.000000 5.982000 -10.907100 4.768800 
11.531690 17.469054 -5.583366 -16.713854 83.701240 -15.201227 3.617988 2.352775 0.066793 -20.109810 -20.292179 2.417699 -1.954093 7.714809 21.519392 -2.184686 16.129097 -17.671301 1.146700 -6.799700 -19.123200 -9.690468 -2.051452 -2.580183 33.277797 17.574860 12.227746 3.140939 -3.589286 13.520728 3.638190 -27.939748 -19.733486 -0.201200 2.888400 -7.968200 0.662902 0.276631 1.964781 1.464545 0.539485 -3.912316 0.072185 -0.065861 -0.664594 -2.967637 -2.760001 -16.383106 7.041314 -3.390366 7.608644 1.034000 -1.301500 8.970200 2.593431 -1.330764 -0.578356 -90.604197 0.657373 31.505748 15.512050 -23.082770 -4.392186 -0.275405 -2.361079 -27.591851 32.797251 51.917866 28.458500 -7.125000 0.000000 0.000000 -69.671200 84.972100 -64.869000 -3.201060 1.335092 -0.747191 87.043856 -2.376320 23.107974 -11.084689 20.761935 -2.243631 0.620539 -0.454101 2.354207 -18.541715 17.708438 -6.164800 7.125000 0.000000 0.000000 5.810200 -10.977200 4.622000 
11.516745 17.471246 -5.580576 -16.698844 83.622640 -15.294467 3.627227 2.368392 0.077083 -20.042829 -20.039204 2.353482 -1.939921 7.721783 21.551574 -2.165534 15.999574 -17.546336 1.148400 -6.804400 -19.137200 -9.665016 -2.082106 -2.610968 33.073163 16.878165 12.007164 3.112940 -3.575887 13.485751 3.474441 -27.253314 -19.293298 -0.228500 3.077100 -8.493500 0.638841 0.240755 2.165747 1.471263 0.494120 -3.888880 0.139249 -0.087628 -0.688487 -3.217852 -2.957616 -16.400260 7.074016 -3.588875 7.449504 1.078800 -1.416400 8.901300 2.597979 -1.339293 -0.565202 -90.639619 0.676387 31.721025 15.744666 -23.372322 -4.485838 -0.268405 -2.353873 -27.770833 32.736879 51.804580 28.365400 -7.125000 0.000000 0.000000 -68.279400 84.939900 -63.486500 -3.223620 1.352173 -0.744050 86.958266 -2.194265 24.083502 -11.580510 21.482137 -2.423499 0.624234 -0.447973 1.793464 -18.771127 17.711385 -6.244500 7.125000 0.000000 0.000000 5.660400 -10.945900 4.505200 
